<svg width="34" height="34" viewBox="0 0 34 34" fill="none" xmlns="http://www.w3.org/2000/svg">
<circle cx="17" cy="17" r="17" fill="#FEF000"/>
<path d="M27 11.8824C26.3007 12.2118 25.5468 12.4282 24.7658 12.5318C25.565 12.0329 26.1826 11.2424 26.4732 10.2918C25.7194 10.7624 24.8838 11.0918 24.0029 11.28C23.2854 10.4706 22.2772 10 21.1329 10C18.9986 10 17.2548 11.8071 17.2548 14.0376C17.2548 14.3576 17.2911 14.6682 17.3547 14.96C14.1214 14.7906 11.2424 13.1812 9.326 10.7435C8.98996 11.3365 8.79924 12.0329 8.79924 12.7671C8.79924 14.1694 9.4804 15.4118 10.5339 16.1176C9.8891 16.1176 9.28968 15.9294 8.76291 15.6471V15.6753C8.76291 17.6329 10.1071 19.2706 11.8872 19.6376C11.3158 19.8004 10.7156 19.823 10.1343 19.7035C10.381 20.5059 10.8641 21.2079 11.5157 21.711C12.1674 22.2141 12.9548 22.4929 13.7672 22.5082C12.39 23.6381 10.6829 24.2488 8.92639 24.24C8.61759 24.24 8.3088 24.2212 8 24.1835C9.72562 25.3318 11.7782 26 13.9761 26C21.1329 26 25.0655 19.8447 25.0655 14.5082C25.0655 14.3294 25.0655 14.16 25.0564 13.9812C25.8193 13.4165 26.4732 12.7012 27 11.8824Z" fill="black"/>
</svg>
