<svg width="34" height="34" viewBox="0 0 34 34" fill="none" xmlns="http://www.w3.org/2000/svg">
<circle cx="17" cy="17" r="17" fill="#FEF000"/>
<path d="M18.4951 9C17.4074 9 16.3643 9.4539 15.5952 10.2618C14.8262 11.0698 14.3941 12.1656 14.3941 13.3082V15.7068H12.1995C12.0896 15.7068 12 15.8 12 15.9164V19.0836C12 19.1991 12.0887 19.2932 12.1995 19.2932H14.3941V25.7904C14.3941 25.9059 14.4828 26 14.5936 26H17.6084C17.7183 26 17.8079 25.9068 17.8079 25.7904V19.2932H20.022C20.1133 19.2932 20.1931 19.2279 20.2153 19.1348L20.969 15.9677C20.9764 15.9368 20.977 15.9045 20.9707 15.8733C20.9645 15.8421 20.9516 15.8128 20.9329 15.7877C20.9143 15.7625 20.8904 15.7422 20.8632 15.7282C20.8359 15.7142 20.806 15.7069 20.7757 15.7068H17.8079V13.3082C17.8079 13.2134 17.8257 13.1195 17.8602 13.032C17.8947 12.9444 17.9453 12.8648 18.0092 12.7977C18.073 12.7307 18.1487 12.6775 18.2321 12.6413C18.3155 12.605 18.4048 12.5863 18.4951 12.5863H20.8005C20.9104 12.5863 21 12.4932 21 12.3767V9.20959C21 9.09408 20.9113 9 20.8005 9H18.4951Z" fill="black"/>
</svg>
