<svg width="34" height="34" viewBox="0 0 34 34" fill="none" xmlns="http://www.w3.org/2000/svg">
<circle cx="17" cy="17" r="17" fill="#FEF000"/>
<path d="M13.64 9H20.36C22.92 9 25 11.08 25 13.64V20.36C25 21.5906 24.5111 22.7708 23.641 23.641C22.7708 24.5111 21.5906 25 20.36 25H13.64C11.08 25 9 22.92 9 20.36V13.64C9 12.4094 9.48886 11.2292 10.359 10.359C11.2292 9.48886 12.4094 9 13.64 9ZM13.48 10.6C12.7162 10.6 11.9836 10.9034 11.4435 11.4435C10.9034 11.9836 10.6 12.7162 10.6 13.48V20.52C10.6 22.112 11.888 23.4 13.48 23.4H20.52C21.2838 23.4 22.0164 23.0966 22.5565 22.5565C23.0966 22.0164 23.4 21.2838 23.4 20.52V13.48C23.4 11.888 22.112 10.6 20.52 10.6H13.48ZM21.2 11.8C21.4652 11.8 21.7196 11.9054 21.9071 12.0929C22.0946 12.2804 22.2 12.5348 22.2 12.8C22.2 13.0652 22.0946 13.3196 21.9071 13.5071C21.7196 13.6946 21.4652 13.8 21.2 13.8C20.9348 13.8 20.6804 13.6946 20.4929 13.5071C20.3054 13.3196 20.2 13.0652 20.2 12.8C20.2 12.5348 20.3054 12.2804 20.4929 12.0929C20.6804 11.9054 20.9348 11.8 21.2 11.8ZM17 13C18.0609 13 19.0783 13.4214 19.8284 14.1716C20.5786 14.9217 21 15.9391 21 17C21 18.0609 20.5786 19.0783 19.8284 19.8284C19.0783 20.5786 18.0609 21 17 21C15.9391 21 14.9217 20.5786 14.1716 19.8284C13.4214 19.0783 13 18.0609 13 17C13 15.9391 13.4214 14.9217 14.1716 14.1716C14.9217 13.4214 15.9391 13 17 13ZM17 14.6C16.3635 14.6 15.753 14.8529 15.3029 15.3029C14.8529 15.753 14.6 16.3635 14.6 17C14.6 17.6365 14.8529 18.247 15.3029 18.6971C15.753 19.1471 16.3635 19.4 17 19.4C17.6365 19.4 18.247 19.1471 18.6971 18.6971C19.1471 18.247 19.4 17.6365 19.4 17C19.4 16.3635 19.1471 15.753 18.6971 15.3029C18.247 14.8529 17.6365 14.6 17 14.6Z" fill="black"/>
</svg>
